<svg width="20" height="20" viewBox="0 0 20 20" fill="none" xmlns="http://www.w3.org/2000/svg">
<g clip-path="url(#clip0_1_27)">
<path d="M17.2812 8.12648C17.0008 7.83333 16.7106 7.53124 16.6011 7.26563C16.5 7.02232 16.494 6.61904 16.4881 6.22842C16.477 5.50223 16.465 4.67931 15.8929 4.10714C15.3207 3.53497 14.4978 3.52306 13.7716 3.5119C13.381 3.50595 12.9777 3.5 12.7344 3.39881C12.4695 3.28944 12.1667 2.99925 11.8735 2.71875C11.3601 2.22545 10.7768 1.66666 10 1.66666C9.22321 1.66666 8.64063 2.22545 8.12648 2.71875C7.83333 2.99925 7.53125 3.28944 7.26563 3.39881C7.02381 3.5 6.61905 3.50595 6.22842 3.5119C5.50223 3.52306 4.67931 3.53497 4.10714 4.10714C3.53497 4.67931 3.52678 5.50223 3.5119 6.22842C3.50595 6.61904 3.5 7.02232 3.39881 7.26563C3.28944 7.5305 2.99926 7.83333 2.71875 8.12648C2.22545 8.63988 1.66667 9.22321 1.66667 10C1.66667 10.7768 2.22545 11.3593 2.71875 11.8735C2.99926 12.1667 3.28944 12.4688 3.39881 12.7344C3.5 12.9777 3.50595 13.3809 3.5119 13.7716C3.52307 14.4978 3.53497 15.3207 4.10714 15.8929C4.67931 16.465 5.50223 16.4769 6.22842 16.4881C6.61905 16.494 7.02232 16.5 7.26563 16.6011C7.5305 16.7106 7.83333 17.0008 8.12648 17.2812C8.63988 17.7746 9.22321 18.3333 10 18.3333C10.7768 18.3333 11.3593 17.7746 11.8735 17.2812C12.1667 17.0008 12.4688 16.7106 12.7344 16.6011C12.9777 16.5 13.381 16.494 13.7716 16.4881C14.4978 16.4769 15.3207 16.465 15.8929 15.8929C16.465 15.3207 16.477 14.4978 16.4881 13.7716C16.494 13.3809 16.5 12.9777 16.6011 12.7344C16.7106 12.4695 17.0008 12.1667 17.2812 11.8735C17.7746 11.3601 18.3333 10.7768 18.3333 10C18.3333 9.22321 17.7746 8.64063 17.2812 8.12648ZM13.3973 8.63542L9.23066 12.8021C9.17537 12.8574 9.10972 12.9013 9.03747 12.9313C8.9652 12.9612 8.88774 12.9767 8.80952 12.9767C8.7313 12.9767 8.65385 12.9612 8.58158 12.9313C8.50932 12.9013 8.44368 12.8574 8.38839 12.8021L6.60267 11.0164C6.49099 10.9047 6.42824 10.7532 6.42824 10.5952C6.42824 10.4372 6.49099 10.2858 6.60267 10.1741C6.71437 10.0624 6.86586 9.99966 7.02381 9.99966C7.18176 9.99966 7.33325 10.0624 7.44494 10.1741L8.80952 11.5394L12.555 7.79315C12.6104 7.73784 12.676 7.69398 12.7483 7.66404C12.8206 7.63412 12.898 7.61871 12.9762 7.61871C13.0544 7.61871 13.1318 7.63412 13.2041 7.66404C13.2764 7.69398 13.342 7.73784 13.3973 7.79315C13.4527 7.84845 13.4965 7.91411 13.5264 7.98637C13.5564 8.05863 13.5717 8.13607 13.5717 8.21428C13.5717 8.29249 13.5564 8.36994 13.5264 8.4422C13.4965 8.51445 13.4527 8.58011 13.3973 8.63542Z" fill="#2563EB"/>
</g>
<defs>
<clipPath id="clip0_1_27">
<rect width="20" height="20" fill="white"/>
</clipPath>
</defs>
</svg>
